<svg width="993" height="284" xmlns="http://www.w3.org/2000/svg">
 <defs>
  <linearGradient y2="0.79767" x2="1.13009" y1="0.32359" x1="-0.04539" id="linear-gradient">
   <stop stop-color="#f1a42d" offset="0.22"/>
   <stop stop-color="#df1e36" offset="0.8"/>
  </linearGradient>
  <linearGradient y2="0.49971" x2="1" y1="0.49971" x1="0" id="linear-gradient-2">
   <stop stop-color="#f1a42d" offset="0"/>
   <stop stop-color="#df1e36" offset="0.97"/>
  </linearGradient>
 </defs>
 <g>
  <title>Layer 1</title>
  <path id="svg_1" fill="url(#linear-gradient)" d="m134.71023,133.48717a305.94,305.94 0 0 0 -25.61,-25.32c-2.31,-2.06 -4.65,-4.08 -7.07,-6c-0.14,-0.1 -0.29,-0.25 -0.43,-0.36c-2,-1.62 -3.9,-3.21 -5.92,-4.76q-6,-4.76 -12.15,-9.12c-2.64,-1.92 -5.27,-3.76 -8,-5.56l-2.17,-1.44a2.3,2.3 0 0 1 -0.14,-0.72a2.16,2.16 0 0 1 2.16,-2.16l0.47,0c0.47,0.4 1,0.8 1.48,1.16c1.77,1.37 3.57,2.74 5.41,4.08a200.74,200.74 0 0 0 18.24,11.75a15.74,15.74 0 0 0 1.45,0.86c1.48,0.83 3,1.66 4.51,2.46c3.82,2 7.72,4 11.68,5.77a208,208 0 0 0 34.63,12.15a21.94,21.94 0 0 0 5.56,1.34a21.2,21.2 0 0 0 2.67,0.14a23.55,23.55 0 0 0 21.82,-14.72a41.93,41.93 0 0 0 -15.37,-44.15a41.29,41.29 0 0 0 -20.52,-8.15a0.33,0.33 0 0 0 0,-0.26a55.41,55.41 0 0 0 -110.38,0a0.93,0.93 0 0 0 0,0.29a41.89,41.89 0 0 0 -37,41.59l0,10.36a315.58,315.58 0 0 0 82.6,105.61c5.05,4.22 10.21,8.26 15.54,12.12c1,0.72 2,1.44 3,2.13c2.64,1.88 5.31,3.71 8,5.52c0.69,0.47 1.41,0.94 2.13,1.44a2,2 0 0 1 0.14,0.69a2.16,2.16 0 0 1 -2.16,2.16a1.83,1.83 0 0 1 -0.47,0c-0.47,-0.39 -1,-0.75 -1.44,-1.15c-1.81,-1.37 -3.61,-2.71 -5.45,-4c-2.24,-1.62 -4.51,-3.21 -6.82,-4.69l-57.78,37.37a39.09,39.09 0 0 0 4.61,0.25l100.86,0a41.89,41.89 0 0 0 41.88,-41.88l0,-10.53a308.4,308.4 0 0 0 -17.71,-31.89a312.94,312.94 0 0 0 -32.25,-42.38zm-84,-83a41.77,41.77 0 0 1 83,0l-83,0z" class="cls-1"/>
  <path id="svg_2" fill="url(#linear-gradient-2)" d="m95.05023,222.43717l-57.79,37.37a41.88,41.88 0 0 1 -37.26,-41.63a40.84,40.84 0 0 1 1.51,-11.14a23.59,23.59 0 0 1 21.68,-14.35a20.67,20.67 0 0 1 2.63,0.14a21.94,21.94 0 0 1 5.56,1.34a206.17,206.17 0 0 1 52.3,21.24c3.86,2.2 7.68,4.54 11.37,7.03z" class="cls-2"/>
  <path id="svg_3" fill="#232f3e" d="m303.36023,116.81717a21.55,21.55 0 0 1 -9.22,7.81a33.25,33.25 0 0 1 -14.41,2.88q-12.8,0 -21.11,-6t-9,-17.58l23.74,0q0.51,6.14 5.44,6.14a4.17,4.17 0 0 0 2.78,-0.9a3.28,3.28 0 0 0 1,-2.62a4.42,4.42 0 0 0 -2.57,-4a50.06,50.06 0 0 0 -8.31,-3.38a77.26,77.26 0 0 1 -11.24,-4.54a22.49,22.49 0 0 1 -7.81,-6.85q-3.29,-4.51 -3.29,-11.74a19.54,19.54 0 0 1 3.58,-11.84a22.14,22.14 0 0 1 9.78,-7.41a36.75,36.75 0 0 1 14,-2.52q12.8,0 20.35,5.95t8.29,17.1l-24.13,0c-0.34,-3.76 -1.88,-5.65 -4.63,-5.65a3.23,3.23 0 0 0 -2.32,0.86a3.36,3.36 0 0 0 -0.91,2.57a4.31,4.31 0 0 0 2.57,3.78a52.27,52.27 0 0 0 8,3.38a85.45,85.45 0 0 1 11.35,4.78a23.12,23.12 0 0 1 7.86,7q3.38,4.59 3.38,11.74a20,20 0 0 1 -3.17,11.04z" class="cls-3"/>
  <path id="svg_4" fill="#232f3e" d="m369.46023,76.10717q5.49,6.55 5.49,17.74l0,33l-22.27,0l0,-30.18a9.15,9.15 0 0 0 -2.16,-6.4a8.33,8.33 0 0 0 -11.64,0a9.27,9.27 0 0 0 -2.12,6.4l0,30.13l-22.4,0l0,-74.57l22.4,0l0,26.4a20.22,20.22 0 0 1 7,-6.55a20.6,20.6 0 0 1 10.43,-2.52q9.78,0 15.27,6.55z" class="cls-3"/>
  <path id="svg_5" fill="#232f3e" d="m427.05023,72.77717a26.05,26.05 0 0 1 10.74,10.14a32.76,32.76 0 0 1 0,30.93a26,26 0 0 1 -10.74,10.13a35.42,35.42 0 0 1 -30.83,0a26,26 0 0 1 -10.74,-10.13a32.76,32.76 0 0 1 0,-30.93a26.05,26.05 0 0 1 10.74,-10.14a35.51,35.51 0 0 1 30.83,0zm-20.69,18.26c-1.41,1.64 -2.12,4.08 -2.12,7.3s0.69,5.66 2.07,7.31a6.55,6.55 0 0 0 5.28,2.47a6.64,6.64 0 0 0 5.25,-2.47c1.41,-1.65 2.11,-4.08 2.11,-7.31s-0.7,-5.66 -2.11,-7.3a6.79,6.79 0 0 0 -10.48,0z" class="cls-3"/>
  <path id="svg_6" fill="#232f3e" d="m498.71023,72.73717a23.4,23.4 0 0 1 8.41,10.07a40.89,40.89 0 0 1 0,31.14a23.49,23.49 0 0 1 -8.41,10.09a21.5,21.5 0 0 1 -12,3.48a19,19 0 0 1 -9.52,-2.27a15.45,15.45 0 0 1 -6.09,-6.2l0,35l-22.38,0l0,-84.09l22.38,0l0,7.76a15.43,15.43 0 0 1 6.09,-6.19a18.84,18.84 0 0 1 9.52,-2.27a21.5,21.5 0 0 1 12,3.48zm-25.35,18.59a11.89,11.89 0 0 0 0,14.11a8.27,8.27 0 0 0 11.89,0a11.89,11.89 0 0 0 0,-14.11a8.27,8.27 0 0 0 -11.89,0z" class="cls-3"/>
  <path id="svg_7" fill="#232f3e" d="m567.23023,72.73717a23.42,23.42 0 0 1 8.42,10.07a41,41 0 0 1 0,31.14a23.51,23.51 0 0 1 -8.42,10.09a21.47,21.47 0 0 1 -12,3.48a19,19 0 0 1 -9.52,-2.27a15.48,15.48 0 0 1 -6.1,-6.2l0,35l-22.36,0l0,-84.09l22.37,0l0,7.76a15.46,15.46 0 0 1 6.1,-6.19a18.84,18.84 0 0 1 9.52,-2.27a21.47,21.47 0 0 1 11.99,3.48zm-25.39,18.59a11.89,11.89 0 0 0 0,14.11a8.27,8.27 0 0 0 11.89,0a11.89,11.89 0 0 0 0,-14.11a8.27,8.27 0 0 0 -11.89,0z" class="cls-3"/>
  <path id="svg_8" fill="#232f3e" d="m587.69023,46.42717a15.3,15.3 0 0 1 18.65,0a10.32,10.32 0 0 1 3.52,8a10,10 0 0 1 -3.52,7.86a13.46,13.46 0 0 1 -9.27,3.13q-5.85,0 -9.38,-3.13a10,10 0 0 1 -3.52,-7.86a10.32,10.32 0 0 1 3.52,-8zm20.46,23.53l0,56.84l-22.37,0l0,-56.84l22.37,0z" class="cls-3"/>
  <path id="svg_9" fill="#232f3e" d="m673.30023,76.10717q5.49,6.55 5.49,17.74l0,33l-22.27,0l0,-30.18a9.15,9.15 0 0 0 -2.16,-6.4a8.33,8.33 0 0 0 -11.64,0a9.23,9.23 0 0 0 -2.12,6.4l0,30.13l-22.37,0l0,-56.84l22.37,0l0,8.67a20.22,20.22 0 0 1 7,-6.55a20.61,20.61 0 0 1 10.44,-2.52q9.77,0 15.26,6.55z" class="cls-3"/>
  <path id="svg_10" fill="#232f3e" d="m718.50023,71.52717a15.24,15.24 0 0 1 6.14,6.19l0,-7.76l22.28,0l0,55.83a35.4,35.4 0 0 1 -2.92,14.52a23.13,23.13 0 0 1 -9.43,10.48q-6.5,3.93 -16.67,3.92q-13.71,0 -21.72,-6.39t-9.12,-17.39l22,0q0.9,4.44 7.25,4.44a8.79,8.79 0 0 0 6.15,-2q2.2,-2 2.21,-7.56l0,-6.77a15.27,15.27 0 0 1 -6.14,6.2a19.25,19.25 0 0 1 -9.57,2.27a21.5,21.5 0 0 1 -12,-3.48a23.49,23.49 0 0 1 -8.41,-10.08a40.89,40.89 0 0 1 0,-31.14a23.4,23.4 0 0 1 8.41,-10.07a21.5,21.5 0 0 1 12,-3.48a19.14,19.14 0 0 1 9.54,2.27zm-8.07,19.8a11.93,11.93 0 0 0 0,14.11a8.28,8.28 0 0 0 11.9,0a11.93,11.93 0 0 0 0,-14.11a8.28,8.28 0 0 0 -11.9,0z" class="cls-3"/>
  <path id="svg_11" fill="#232f3e" d="m859.89023,55.44717l0,71.35l-22.27,0l0,-35.57l-11,35.57l-19.13,0l-11,-35.57l0,35.57l-22.36,0l0,-71.35l27.41,0l15.72,42.83l15.32,-42.83l27.31,0z" class="cls-3"/>
  <path id="svg_12" fill="#232f3e" d="m900.00023,71.52717a15.3,15.3 0 0 1 6.14,6.19l0,-7.76l22.28,0l0,56.84l-22.28,0l0,-7.76a15.33,15.33 0 0 1 -6.14,6.2a19.25,19.25 0 0 1 -9.57,2.27a21.5,21.5 0 0 1 -12,-3.48a23.42,23.42 0 0 1 -8.41,-10.08a40.89,40.89 0 0 1 0,-31.14a23.33,23.33 0 0 1 8.41,-10.07a21.5,21.5 0 0 1 12,-3.48a19.14,19.14 0 0 1 9.57,2.27zm-8.07,19.8a11.93,11.93 0 0 0 0,14.11a8.28,8.28 0 0 0 11.9,0a11.93,11.93 0 0 0 0,-14.11a8.28,8.28 0 0 0 -11.9,0z" class="cls-3"/>
  <path id="svg_13" fill="#232f3e" d="m960.87023,52.22717l0,74.57l-22.38,0l0,-74.57l22.38,0z" class="cls-3"/>
  <path id="svg_14" fill="#232f3e" d="m993.36023,52.22717l0,74.57l-22.37,0l0,-74.57l22.37,0z" class="cls-3"/>
  <path id="svg_15" fill="#232f3e" d="m342.60023,185.54717l0,71.35l-22.24,0l0,-35.57l-11,35.57l-19.16,0l-11,-35.57l0,35.57l-22.36,0l0,-71.35l27.42,0l15.72,42.83l15.31,-42.83l27.31,0z" class="cls-3"/>
  <path id="svg_16" fill="#232f3e" d="m371.52023,200.03717l10.69,28.83l10,-28.83l24.68,0l-36.38,84.05l-24.5,0l14.35,-30.05l-23.69,-54l24.85,0z" class="cls-3"/>
  <path id="svg_17" fill="#232f3e" d="m450.94023,201.61717a15.54,15.54 0 0 1 6.15,6.2l0,-7.78l22.27,0l0,56.84l-22.27,0l0,-7.74a15.54,15.54 0 0 1 -6.15,6.2a19.26,19.26 0 0 1 -9.58,2.26a21.48,21.48 0 0 1 -12,-3.47a23.42,23.42 0 0 1 -8.4,-10.09a40.89,40.89 0 0 1 0,-31.14a23.42,23.42 0 0 1 8.4,-10.07a21.48,21.48 0 0 1 12,-3.47a19.26,19.26 0 0 1 9.58,2.26zm-8.06,19.8a11.9,11.9 0 0 0 0,14.12a8.3,8.3 0 0 0 11.89,0a11.9,11.9 0 0 0 0,-14.12a8.3,8.3 0 0 0 -11.89,0z" class="cls-3"/>
  <path id="svg_18" fill="#232f3e" d="m544.51023,206.20717q5.49,6.55 5.49,17.73l0,33l-22.27,0l0,-30.17a9.09,9.09 0 0 0 -2.17,-6.4a8.33,8.33 0 0 0 -11.64,0a9.25,9.25 0 0 0 -2.11,6.4l0,30.13l-22.37,0l0,-56.86l22.37,0l0,8.67a20.22,20.22 0 0 1 7,-6.55a20.58,20.58 0 0 1 10.43,-2.52q9.78,0.02 15.27,6.57z" class="cls-3"/>
  <path id="svg_19" fill="#232f3e" d="m652.44023,206.20717q6,6.55 6,17.73l0,33l-22.27,0l0,-30.17a7.53,7.53 0 0 0 -2.17,-5.7a9.25,9.25 0 0 0 -11.64,-0.03a7.61,7.61 0 0 0 -2.12,5.7l0,30.13l-22.27,0l0,-30.1a7.49,7.49 0 0 0 -2.17,-5.7a9.25,9.25 0 0 0 -11.64,0a7.61,7.61 0 0 0 -2.11,5.7l0,30.13l-22.38,0l0,-56.86l22.38,0l0,7.66a17.8,17.8 0 0 1 6.6,-5.85a20.74,20.74 0 0 1 9.82,-2.21a21.81,21.81 0 0 1 10.89,2.69a20.11,20.11 0 0 1 7.56,7.51a25.39,25.39 0 0 1 8,-7.31a20.55,20.55 0 0 1 10.68,-2.87q10.84,0 16.84,6.55z" class="cls-3"/>
  <path id="svg_20" fill="#232f3e" d="m698.14023,201.61717a15.41,15.41 0 0 1 6.15,6.2l0,-7.78l22.27,0l0,56.84l-22.27,0l0,-7.74a15.41,15.41 0 0 1 -6.15,6.2a19.19,19.19 0 0 1 -9.57,2.26a21.48,21.48 0 0 1 -12,-3.47a23.44,23.44 0 0 1 -8.41,-10.09a41,41 0 0 1 0,-31.14a23.44,23.44 0 0 1 8.42,-10.08a21.48,21.48 0 0 1 12,-3.47a19.19,19.19 0 0 1 9.56,2.27zm-8.06,19.8a11.9,11.9 0 0 0 0,14.12a8.3,8.3 0 0 0 11.89,0a11.9,11.9 0 0 0 0,-14.12a8.3,8.3 0 0 0 -11.89,0z" class="cls-3"/>
  <path id="svg_21" fill="#232f3e" d="m767.36023,202.62717a19.73,19.73 0 0 1 10.29,-3l0,23.91l-6.29,0c-4.23,0 -7.35,0.74 -9.32,2.22s-3,4.1 -3,7.86l0,23.28l-22.4,0l0,-56.86l22.37,0l0,10.5a27.25,27.25 0 0 1 8.35,-7.91z" class="cls-3"/>
 </g>
</svg>